<svg xmlns="http://www.w3.org/2000/svg" viewBox="0 0 270 220" preserveAspectRatio="none"><defs><pattern id="h" patternUnits="userSpaceOnUse" width="4.5" height="4.5" patternTransform="rotate(30)"><circle cx="2.25" cy="2.25" r=".95" fill="#7a5a2a"/></pattern><clipPath id="c"><path d="M8.0 9.0L26.3 8.8L44.6 8.6L62.9 8.4L81.1 8.1L99.4 7.9L117.7 7.7L136.0 7.5L154.3 7.3L172.6 7.1L190.9 6.9L209.1 6.6L227.4 6.4L248.0 6.0L264.0 22.0L264.5 26.8L265.0 47.6L265.2 68.4L265.8 89.2L265.0 110.0L265.7 130.8L262.1 151.6L263.9 172.4L265.8 193.2L263.0 214.0L245.6 214.7L227.1 215.9L208.7 212.1L190.3 213.9L171.9 212.8L153.4 214.2L135.0 214.4L116.6 211.7L98.1 212.6L79.7 212.9L61.3 216.0L42.9 215.3L24.4 212.4L16.0 215.0L6.0 202.0L7.2 193.2L4.6 172.4L6.5 151.6L4.5 130.8L4.0 110.0L7.5 89.2L4.8 68.4L4.9 47.6L7.9 26.8Z"/></clipPath></defs><path d="M8.0 9.0L26.3 8.8L44.6 8.6L62.9 8.4L81.1 8.1L99.4 7.9L117.7 7.7L136.0 7.5L154.3 7.3L172.6 7.1L190.9 6.9L209.1 6.6L227.4 6.4L248.0 6.0L264.0 22.0L264.5 26.8L265.0 47.6L265.2 68.4L265.8 89.2L265.0 110.0L265.7 130.8L262.1 151.6L263.9 172.4L265.8 193.2L263.0 214.0L245.6 214.7L227.1 215.9L208.7 212.1L190.3 213.9L171.9 212.8L153.4 214.2L135.0 214.4L116.6 211.7L98.1 212.6L79.7 212.9L61.3 216.0L42.9 215.3L24.4 212.4L16.0 215.0L6.0 202.0L7.2 193.2L4.6 172.4L6.5 151.6L4.5 130.8L4.0 110.0L7.5 89.2L4.8 68.4L4.9 47.6L7.9 26.8Z" fill="#0d0905" transform="translate(5 6)"/><path d="M8.0 9.0L26.3 8.8L44.6 8.6L62.9 8.4L81.1 8.1L99.4 7.9L117.7 7.7L136.0 7.5L154.3 7.3L172.6 7.1L190.9 6.9L209.1 6.6L227.4 6.4L248.0 6.0L264.0 22.0L264.5 26.8L265.0 47.6L265.2 68.4L265.8 89.2L265.0 110.0L265.7 130.8L262.1 151.6L263.9 172.4L265.8 193.2L263.0 214.0L245.6 214.7L227.1 215.9L208.7 212.1L190.3 213.9L171.9 212.8L153.4 214.2L135.0 214.4L116.6 211.7L98.1 212.6L79.7 212.9L61.3 216.0L42.9 215.3L24.4 212.4L16.0 215.0L6.0 202.0L7.2 193.2L4.6 172.4L6.5 151.6L4.5 130.8L4.0 110.0L7.5 89.2L4.8 68.4L4.9 47.6L7.9 26.8Z" fill="#e6d29e"/><g clip-path="url(#c)"><rect x="0" y="172" width="270" height="220" fill="url(#h)" opacity=".28"/><rect x="248" y="0" width="22" height="220" fill="url(#h)" opacity=".28"/><ellipse cx="221" cy="176" rx="35" ry="22" fill="#b08e52" opacity=".32"/><ellipse cx="43" cy="44" rx="24" ry="15" fill="#b08e52" opacity=".26"/><path d="M228.1 67.9l3.9 -1.0" stroke="#9c8250" stroke-width="1" stroke-linecap="round" opacity=".5"/><path d="M144.8 145.6l1.1 3.8" stroke="#9c8250" stroke-width="1" stroke-linecap="round" opacity=".5"/><path d="M245.2 148.1l3.9 -0.8" stroke="#9c8250" stroke-width="1" stroke-linecap="round" opacity=".5"/><path d="M233.4 69.8l-2.6 3.1" stroke="#9c8250" stroke-width="1" stroke-linecap="round" opacity=".5"/><path d="M51.5 39.1l3.7 1.6" stroke="#9c8250" stroke-width="1" stroke-linecap="round" opacity=".5"/><path d="M85.3 130.6l4.0 0.1" stroke="#9c8250" stroke-width="1" stroke-linecap="round" opacity=".5"/><path d="M179.5 77.6l-1.5 3.7" stroke="#9c8250" stroke-width="1" stroke-linecap="round" opacity=".5"/><path d="M214.6 106.1l-1.6 3.7" stroke="#9c8250" stroke-width="1" stroke-linecap="round" opacity=".5"/><path d="M130.3 150.9l3.7 1.4" stroke="#9c8250" stroke-width="1" stroke-linecap="round" opacity=".5"/><path d="M253.8 14.6l-0.0 -4.0" stroke="#9c8250" stroke-width="1" stroke-linecap="round" opacity=".5"/><path d="M221.2 13.6l0.9 -3.9" stroke="#9c8250" stroke-width="1" stroke-linecap="round" opacity=".5"/><path d="M101.5 125.7l4.0 0.2" stroke="#9c8250" stroke-width="1" stroke-linecap="round" opacity=".5"/><path d="M21.7 46.2l3.8 -1.1" stroke="#9c8250" stroke-width="1" stroke-linecap="round" opacity=".5"/><path d="M59.1 161.1l3.6 -1.7" stroke="#9c8250" stroke-width="1" stroke-linecap="round" opacity=".5"/><path d="M245.5 78.9l-2.4 3.2" stroke="#9c8250" stroke-width="1" stroke-linecap="round" opacity=".5"/><path d="M141.2 165.1l3.1 2.5" stroke="#9c8250" stroke-width="1" stroke-linecap="round" opacity=".5"/><path d="M197.1 169.4l2.5 -3.1" stroke="#9c8250" stroke-width="1" stroke-linecap="round" opacity=".5"/><path d="M19.2 199.2l3.4 2.2" stroke="#9c8250" stroke-width="1" stroke-linecap="round" opacity=".5"/><path d="M95.2 132.2l3.5 -2.0" stroke="#9c8250" stroke-width="1" stroke-linecap="round" opacity=".5"/><path d="M95.0 194.8l-3.8 -1.1" stroke="#9c8250" stroke-width="1" stroke-linecap="round" opacity=".5"/><path d="M88.1 73.4l1.8 3.6" stroke="#9c8250" stroke-width="1" stroke-linecap="round" opacity=".5"/><path d="M29.5 39.8l-1.5 -3.7" stroke="#9c8250" stroke-width="1" stroke-linecap="round" opacity=".5"/><path d="M259.2 42.3l3.8 1.2" stroke="#9c8250" stroke-width="1" stroke-linecap="round" opacity=".5"/><path d="M256.7 116.7l-3.3 2.2" stroke="#9c8250" stroke-width="1" stroke-linecap="round" opacity=".5"/><path d="M69.3 128.8l1.8 -3.6" stroke="#9c8250" stroke-width="1" stroke-linecap="round" opacity=".5"/><path d="M123.9 94.4l3.8 1.4" stroke="#9c8250" stroke-width="1" stroke-linecap="round" opacity=".5"/><path d="M239.0 16.5l-4.0 0.2" stroke="#9c8250" stroke-width="1" stroke-linecap="round" opacity=".5"/><path d="M219.6 36.1l-0.5 -4.0" stroke="#9c8250" stroke-width="1" stroke-linecap="round" opacity=".5"/><path d="M247.4 136.1l0.9 -3.9" stroke="#9c8250" stroke-width="1" stroke-linecap="round" opacity=".5"/><path d="M36.7 96.9l2.4 3.2" stroke="#9c8250" stroke-width="1" stroke-linecap="round" opacity=".5"/><path d="M221.2 69.0l-3.8 1.2" stroke="#9c8250" stroke-width="1" stroke-linecap="round" opacity=".5"/><path d="M259.8 180.5l4.0 -0.6" stroke="#9c8250" stroke-width="1" stroke-linecap="round" opacity=".5"/><path d="M123.4 107.6l-0.5 -4.0" stroke="#9c8250" stroke-width="1" stroke-linecap="round" opacity=".5"/><path d="M129.8 68.2l-3.3 2.3" stroke="#9c8250" stroke-width="1" stroke-linecap="round" opacity=".5"/><path d="M46.6 85.4l4.0 -0.3" stroke="#9c8250" stroke-width="1" stroke-linecap="round" opacity=".5"/><path d="M250.0 135.4l-4.0 0.0" stroke="#9c8250" stroke-width="1" stroke-linecap="round" opacity=".5"/><path d="M94.6 27.8l-0.6 4.0" stroke="#9c8250" stroke-width="1" stroke-linecap="round" opacity=".5"/><path d="M205.5 183.5l-2.6 3.1" stroke="#9c8250" stroke-width="1" stroke-linecap="round" opacity=".5"/><path d="M206.5 165.0l-1.4 -3.8" stroke="#9c8250" stroke-width="1" stroke-linecap="round" opacity=".5"/><path d="M176.0 161.9l-2.6 3.0" stroke="#9c8250" stroke-width="1" stroke-linecap="round" opacity=".5"/><path d="M186.1 66.2l-4.0 0.4" stroke="#9c8250" stroke-width="1" stroke-linecap="round" opacity=".5"/><path d="M202.4 148.2l-1.1 3.9" stroke="#9c8250" stroke-width="1" stroke-linecap="round" opacity=".5"/><path d="M246.4 139.9l-3.5 -1.9" stroke="#9c8250" stroke-width="1" stroke-linecap="round" opacity=".5"/><path d="M12.9 119.4l-0.0 4.0" stroke="#9c8250" stroke-width="1" stroke-linecap="round" opacity=".5"/><path d="M177.9 102.6l1.6 -3.7" stroke="#9c8250" stroke-width="1" stroke-linecap="round" opacity=".5"/><path d="M171.9 169.5l-2.3 3.3" stroke="#9c8250" stroke-width="1" stroke-linecap="round" opacity=".5"/><path d="M171.0 157.6l1.9 -3.5" stroke="#9c8250" stroke-width="1" stroke-linecap="round" opacity=".5"/><path d="M97.5 178.6l2.7 -2.9" stroke="#9c8250" stroke-width="1" stroke-linecap="round" opacity=".5"/><path d="M182.1 205.2l3.8 -1.1" stroke="#9c8250" stroke-width="1" stroke-linecap="round" opacity=".5"/><path d="M139.5 115.9l2.0 3.5" stroke="#9c8250" stroke-width="1" stroke-linecap="round" opacity=".5"/><path d="M219.2 197.5l-4.0 0.6" stroke="#9c8250" stroke-width="1" stroke-linecap="round" opacity=".5"/><path d="M182.9 153.9l-0.5 -4.0" stroke="#9c8250" stroke-width="1" stroke-linecap="round" opacity=".5"/><path d="M53.0 166.1l-3.5 -1.9" stroke="#9c8250" stroke-width="1" stroke-linecap="round" opacity=".5"/><path d="M176.4 94.2l-2.9 -2.8" stroke="#9c8250" stroke-width="1" stroke-linecap="round" opacity=".5"/><path d="M203.7 137.4l-0.7 -3.9" stroke="#9c8250" stroke-width="1" stroke-linecap="round" opacity=".5"/><path d="M16.9 42.0l-3.7 1.5" stroke="#9c8250" stroke-width="1" stroke-linecap="round" opacity=".5"/><path d="M172.5 53.8l-1.6 -3.7" stroke="#9c8250" stroke-width="1" stroke-linecap="round" opacity=".5"/><path d="M167.7 18.4l-3.9 0.7" stroke="#9c8250" stroke-width="1" stroke-linecap="round" opacity=".5"/><path d="M66.6 20.8l2.7 3.0" stroke="#9c8250" stroke-width="1" stroke-linecap="round" opacity=".5"/><path d="M89.3 46.3l1.4 3.7" stroke="#9c8250" stroke-width="1" stroke-linecap="round" opacity=".5"/><path d="M18.9 103.1l-2.9 2.7" stroke="#9c8250" stroke-width="1" stroke-linecap="round" opacity=".5"/><path d="M162.9 128.0l0.3 4.0" stroke="#9c8250" stroke-width="1" stroke-linecap="round" opacity=".5"/><path d="M235.8 10.1l-3.3 2.2" stroke="#9c8250" stroke-width="1" stroke-linecap="round" opacity=".5"/><path d="M79.6 92.0l3.0 2.6" stroke="#9c8250" stroke-width="1" stroke-linecap="round" opacity=".5"/><path d="M217.8 84.8l3.9 0.9" stroke="#9c8250" stroke-width="1" stroke-linecap="round" opacity=".5"/><path d="M163.4 29.0l-3.8 -1.1" stroke="#9c8250" stroke-width="1" stroke-linecap="round" opacity=".5"/><circle cx="94.8" cy="126.2" r="2.9" fill="#a07e44" opacity=".35"/><circle cx="214.6" cy="93.8" r="2.7" fill="#a07e44" opacity=".35"/><circle cx="170.6" cy="83.9" r="1.7" fill="#a07e44" opacity=".35"/><circle cx="159.0" cy="122.8" r="2.9" fill="#a07e44" opacity=".35"/></g><path d="M8.0 9.0L26.3 8.8L44.6 8.6L62.9 8.4L81.1 8.1L99.4 7.9L117.7 7.7L136.0 7.5L154.3 7.3L172.6 7.1L190.9 6.9L209.1 6.6L227.4 6.4L248.0 6.0L264.0 22.0L264.5 26.8L265.0 47.6L265.2 68.4L265.8 89.2L265.0 110.0L265.7 130.8L262.1 151.6L263.9 172.4L265.8 193.2L263.0 214.0L245.6 214.7L227.1 215.9L208.7 212.1L190.3 213.9L171.9 212.8L153.4 214.2L135.0 214.4L116.6 211.7L98.1 212.6L79.7 212.9L61.3 216.0L42.9 215.3L24.4 212.4L16.0 215.0L6.0 202.0L7.2 193.2L4.6 172.4L6.5 151.6L4.5 130.8L4.0 110.0L7.5 89.2L4.8 68.4L4.9 47.6L7.9 26.8Z" fill="none" stroke="#140c06" stroke-width="2.6" stroke-linejoin="round"/><path d="M248 6L264 22L246 19Z" fill="#5a3a1e" stroke="#140c06" stroke-width="2"/><rect x="16" y="16" width="238" height="188" fill="none" stroke="#140c06" stroke-width="2.6"/><rect x="21" y="21" width="228" height="178" fill="none" stroke="#140c06" stroke-width="1"/><path d="M16 17l7 9" stroke="#3a2410" stroke-width="3.4" stroke-linecap="round" opacity=".55"/><circle cx="14" cy="12" r="6.2" fill="#2c2620" stroke="#140c06" stroke-width="2.4"/><path d="M10.5 11a4 4 0 0 1 3.4 -3.2" stroke="#9a9286" stroke-width="1.8" fill="none"/><path d="M248 18l7 9" stroke="#3a2410" stroke-width="3.4" stroke-linecap="round" opacity=".55"/><circle cx="246" cy="13" r="6.2" fill="#2c2620" stroke="#140c06" stroke-width="2.4"/><path d="M242.5 12a4 4 0 0 1 3.4 -3.2" stroke="#9a9286" stroke-width="1.8" fill="none"/></svg>