<svg xmlns="http://www.w3.org/2000/svg" viewBox="0 0 800 512" width="800" height="512">
<defs>
<pattern id="bc-grainN" width="12" height="12" patternUnits="userSpaceOnUse" patternTransform="rotate(17)"><g fill="#4a2a0e"><circle cx="2.9" cy="0.9" r="1.00"/><circle cx="2.3" cy="6.6" r="0.75"/><circle cx="2.6" cy="9" r="1.17"/><circle cx="5.1" cy="3.2" r="0.72"/><circle cx="6" cy="4.8" r="1.15"/><circle cx="7.4" cy="11.1" r="1.09"/><circle cx="9.5" cy="0.8" r="0.76"/><circle cx="9.3" cy="4.9" r="0.83"/><circle cx="9.1" cy="10.3" r="0.80"/></g><g fill="#c08a52"><circle cx="1.3" cy="-0.6" r="0.58"/><circle cx="1" cy="7.5" r="0.55"/><circle cx="4.4" cy="3.3" r="0.46"/><circle cx="7.9" cy="-0.7" r="0.71"/></g></pattern>
<pattern id="bc-grainC" width="12" height="12" patternUnits="userSpaceOnUse" patternTransform="rotate(-23)"><g fill="#1e1006"><circle cx="2.2" cy="2.4" r="0.78"/><circle cx="1.4" cy="7.2" r="0.89"/><circle cx="0.6" cy="10.9" r="0.71"/><circle cx="5.1" cy="1.6" r="1.24"/><circle cx="6.4" cy="6.4" r="1.23"/><circle cx="7.4" cy="10.4" r="0.83"/><circle cx="11.3" cy="2.9" r="0.70"/><circle cx="9.3" cy="6.6" r="0.76"/><circle cx="9.5" cy="8.7" r="1.11"/></g><g fill="#6a4424"><circle cx="-0.2" cy="5.7" r="0.45"/><circle cx="-1" cy="9.4" r="0.54"/><circle cx="3.5" cy="0.1" r="0.58"/><circle cx="4.8" cy="4.9" r="0.73"/><circle cx="5.8" cy="8.9" r="0.47"/></g></pattern>
<pattern id="bc-felt" width="10" height="10" patternUnits="userSpaceOnUse"><g fill="#3a0b16"><circle cx="1" cy="7.9" r="0.45"/><circle cx="5.4" cy="3.1" r="0.63"/><circle cx="4.3" cy="7.6" r="0.51"/><circle cx="9.6" cy="2.6" r="0.59"/><circle cx="4" cy="6.5" r="0.56"/><circle cx="9.8" cy="2.8" r="0.57"/><circle cx="6.5" cy="9.7" r="0.76"/><circle cx="7.5" cy="8.6" r="0.46"/><circle cx="1.2" cy="6.9" r="0.72"/><circle cx="4.3" cy="9.5" r="0.71"/><circle cx="2.3" cy="2.7" r="0.53"/><circle cx="9.2" cy="9.6" r="0.75"/></g><g fill="#8e3849"><circle cx="7" cy="9.5" r="0.56"/><circle cx="6.5" cy="5.4" r="0.42"/><circle cx="9.8" cy="9.4" r="0.43"/><circle cx="3.5" cy="5.9" r="0.43"/><circle cx="9.6" cy="4.9" r="0.56"/></g><path d="M 4.7 3.1 l 1.6 1.9 M 4.5 6.9 l 1.6 1.9 M 5.7 2.5 l 1.6 1.9" stroke="#3a0b16" stroke-width=".8" stroke-linecap="round"/></pattern>
<clipPath id="bc-cLid"><path d="M 112 26 L 688 26 Q 700 26 699 38 L 678 252 L 122 252 L 101 38 Q 100 26 112 26 Z"/></clipPath>
<clipPath id="bc-cBase"><path d="M 120 266 L 680 266 L 702 400 Q 704 412 692 412 L 108 412 Q 96 412 98 400 Z"/></clipPath>
<clipPath id="bc-cWall"><path d="M 108 412 L 692 412 L 690 446 Q 689 456 677 456 L 123 456 Q 111 456 110 446 Z"/></clipPath>
<clipPath id="bc-cHandle"><path d="M 344 456 Q 342 488 400 488 Q 458 488 456 456 L 438 456 Q 439 474 400 474 Q 361 474 362 456 Z"/></clipPath>
<clipPath id="bc-cLidVel"><path d="M 117 46 L 683 46 L 664 238 L 136 238 Z"/></clipPath>
<clipPath id="bc-cBaseVel"><path d="M 136 280 L 664 280 L 682 398 L 118 398 Z"/></clipPath>
</defs>
<pattern id="bc-castDots" width="6" height="6" patternUnits="userSpaceOnUse" patternTransform="rotate(45)"><circle cx="3" cy="3" r="1.5" fill="#2a1608"/></pattern>
<g id="bc-cast" opacity=".5"><g transform="translate(16 21)" fill="url(#bc-castDots)"><path d="M 112 26 L 688 26 Q 700 26 699 38 L 678 252 L 122 252 L 101 38 Q 100 26 112 26 Z"/><path d="M 122 252 L 678 252 L 680 266 L 120 266 Z"/><path d="M 120 266 L 680 266 L 702 400 Q 704 412 692 412 L 108 412 Q 96 412 98 400 Z"/><path d="M 108 412 L 692 412 L 690 446 Q 689 456 677 456 L 123 456 Q 111 456 110 446 Z"/><path d="M 344 456 Q 342 488 400 488 Q 458 488 456 456 L 438 456 Q 439 474 400 474 Q 361 474 362 456 Z"/></g><g transform="translate(10 13)" fill="#2a1608"><path d="M 112 26 L 688 26 Q 700 26 699 38 L 678 252 L 122 252 L 101 38 Q 100 26 112 26 Z"/><path d="M 122 252 L 678 252 L 680 266 L 120 266 Z"/><path d="M 120 266 L 680 266 L 702 400 Q 704 412 692 412 L 108 412 Q 96 412 98 400 Z"/><path d="M 108 412 L 692 412 L 690 446 Q 689 456 677 456 L 123 456 Q 111 456 110 446 Z"/><path d="M 344 456 Q 342 488 400 488 Q 458 488 456 456 L 438 456 Q 439 474 400 474 Q 361 474 362 456 Z"/></g></g>
<g id="bc-lid">
<path d="M 112 26 L 688 26 Q 700 26 699 38 L 678 252 L 122 252 L 101 38 Q 100 26 112 26 Z" fill="#14100b" stroke="#14100b" stroke-width="5.0" stroke-linejoin="round" transform="translate(1.6 2.2)"/>
<path d="M 112 26 L 688 26 Q 700 26 699 38 L 678 252 L 122 252 L 101 38 Q 100 26 112 26 Z" fill="#93602f"/>
<g clip-path="url(#bc-cLid)">
<path d="M 699 38 L 678 252 L 122 252 L 124 240 L 668 240 L 684 60 Z" fill="#663e18"/>
<path d="M 112 26 L 688 26 Q 700 26 699 38 L 678 252 L 122 252 L 101 38 Q 100 26 112 26 Z" fill="url(#bc-grainN)" opacity="0.5"/>
<path d="M 234.8 32 C 235.3 32.9 228.7 34 224 35 C 219.4 35.9 213.5 37.6 206.9 37.8 C 200.4 37.9 191.3 36.5 184.8 35.9 C 178.3 35.2 170.3 34.6 167.9 33.7 C 165.5 32.8 167.9 31.4 170.5 30.4 C 173.2 29.4 177.6 28.6 183.7 27.9 C 189.8 27.1 201.1 25.6 207.3 25.9 C 213.5 26.2 216.3 28.4 220.9 29.4 C 225.5 30.4 234.3 31.1 234.8 32 Z" fill="#efc58e" opacity="0.20"/>
<path d="M 602.8 32 C 602.2 33 595 34 589.1 34.8 C 583.1 35.5 576.5 36.1 567.1 36.6 C 557.6 37 540 37.9 532.5 37.4 C 525 36.9 524.9 34.8 522.2 33.6 C 519.5 32.4 513.6 31.2 516.4 30.2 C 519.2 29.2 530.2 28.5 538.9 27.8 C 547.6 27.2 559.5 26.3 568.5 26.5 C 577.5 26.7 587.1 28 592.8 28.9 C 598.5 29.8 603.4 31 602.8 32 Z" fill="#efc58e" opacity="0.18"/>
<path d="M 111.3 150 C 111.3 159.3 111.3 170.6 110.7 177.5 C 110.1 184.5 108.9 189.2 107.8 191.7 C 106.7 194.2 105.1 197 104.2 192.6 C 103.3 188.2 102.4 174.7 102.2 165.4 C 102 156.1 102.5 146.1 102.9 136.8 C 103.2 127.4 103.5 113.7 104.3 109.2 C 105.1 104.8 106.7 108.1 107.8 110.2 C 108.9 112.2 110.3 114.9 110.8 121.6 C 111.4 128.2 111.4 140.7 111.3 150 Z" fill="#efc58e" opacity="0.18"/>
<path d="M 694.4 140 C 694.4 148.2 694.3 157.5 693.7 164.8 C 693.1 172.1 692 182.2 691 183.9 C 689.9 185.6 688.5 179.7 687.5 174.9 C 686.5 170.1 685.3 163.4 684.8 155.1 C 684.4 146.7 684.4 133.4 684.8 124.9 C 685.2 116.4 686.4 108.6 687.4 104.2 C 688.4 99.7 689.9 96.5 690.9 98.3 C 692 100.2 693.1 108.4 693.7 115.3 C 694.3 122.3 694.4 131.8 694.4 140 Z" fill="#efc58e" opacity="0.12"/>
<path d="M 201.8 247 C 202.5 248 199.4 249.7 194.2 250.2 C 188.9 250.8 178.3 250.2 170 250.2 C 161.7 250.2 148.8 251 144.1 250.4 C 139.5 249.9 140.6 248 142 247 C 143.4 246 147.9 245.2 152.6 244.7 C 157.3 244.1 163.8 243.7 170 243.7 C 176.2 243.7 184.2 243.8 189.5 244.4 C 194.8 244.9 201 246 201.8 247 Z" fill="#efc58e" opacity="0.12"/>
<path d="M 638.8 247 C 638.9 247.9 639.2 249 636.1 249.7 C 633 250.3 625.7 250.8 620 250.8 C 614.3 250.9 605.6 250.7 601.7 250 C 597.8 249.4 596.8 248.1 596.4 247 C 596 245.9 595.4 244.3 599.3 243.6 C 603.3 242.8 614 242.5 620 242.7 C 626 242.8 632.3 243.7 635.5 244.4 C 638.6 245.1 638.7 246.1 638.8 247 Z" fill="#efc58e" opacity="0.10"/>
<path d="M 127.8 238 C 127.6 240.5 126 243.2 124.3 245.1 C 122.7 247 120.1 249.5 118 249.5 C 115.9 249.5 113.3 247.2 111.5 245.3 C 109.8 243.3 107.5 240.1 107.8 238 C 108.1 235.9 111.6 234.1 113.3 232.8 C 115 231.5 116 230.7 118 230.2 C 120 229.7 123.6 228.5 125.3 229.8 C 126.9 231.1 128 235.5 127.8 238 Z" fill="#efc58e" opacity="0.25"/>
<path d="M 687 236 C 687 238.6 689 242.1 688.2 244 C 687.4 245.9 683.7 247.7 682 247.2 C 680.3 246.7 679.1 242.8 678.1 241 C 677.2 239.1 676.9 238.2 676.5 236 C 676.1 233.8 674.9 230 675.8 228 C 676.7 226.1 680 224.5 682 224.5 C 684 224.5 687.2 226.3 688 228.2 C 688.9 230.1 687 233.4 687 236 Z" fill="#efc58e" opacity="0.18"/>
<path d="M 150.7 28.3 Q 152.3 35.1 154.9 41.7 Q 154.6 33.9 153.3 27.7 Z" fill="#2e1606" opacity=".6"/>
<path d="M 646.7 27.7 Q 645.4 34.6 645.1 41.7 Q 648 34.4 649.3 28.3 Z" fill="#2e1606" opacity=".6"/>
<path d="M 103.8 89.1 Q 109.7 90.2 115.7 90.5 Q 109.5 88 104.2 86.9 Z" fill="#2e1606" opacity=".6"/>
<path d="M 696.8 92.9 Q 691.4 94 686.2 95.9 Q 692.3 95.9 697.2 95.1 Z" fill="#2e1606" opacity=".6"/>
<path d="M 236.2 251.1 Q 249 249.2 261.7 246.4 Q 247.4 247.3 235.8 248.9 Z" fill="#2e1606" opacity=".6"/>
<path d="M 548.2 248.9 Q 536.3 247.3 524.2 246.7 Q 537.2 249.6 547.8 251.1 Z" fill="#2e1606" opacity=".6"/>
<path d="M 111.5 196.8 Q 115.5 199 119.8 200.5 Q 116 197.2 112.5 195.2 Z" fill="#2e1606" opacity=".6"/>
<path d="M 176 29 l 9 -1 M 612 30 l 7 1 M 104 128 l 1 8 M 694 176 l -1 7 M 300 249 l 10 0" fill="none" stroke="#efc58e" stroke-width="1.1" stroke-linecap="round" opacity=".32"/>
<path d="M 112 26 L 688 26 Q 700 26 699 38 L 678 252 L 122 252 L 101 38 Q 100 26 112 26 Z" fill="none" stroke="#3a1e08" stroke-width="9" opacity=".6"/>
<path d="M 274.5 60.6 L 270.5 65.1 L 263.5 69.3 L 249.9 71.6 L 238.5 67.1 L 234.4 60.6 L 243.1 55.8 L 251.0 51.4 L 263.1 52.5 L 271.4 55.9 Z" fill="#7c4d22"/><path d="M 221.3 82.9 L 214.6 92.1 L 197.7 97.8 L 179.6 94.0 L 165.8 90.2 L 156.2 82.9 L 160.9 73.9 L 176.7 67.6 L 198.1 67.5 L 206.3 76.5 Z" fill="#7c4d22"/><path d="M 476.0 174.3 L 475.0 180.4 L 462.7 182.3 L 448.8 186.3 L 435.9 181.5 L 434.3 174.3 L 440.9 168.8 L 448.9 162.5 L 464.3 164.1 L 478.6 167.1 Z" fill="#7c4d22"/><path d="M 471.3 193.2 l 29.1 7.4 M 539.1 232.9 l 10.7 -1.4 M 657.1 172.8 l 31.6 -12.9 M 382.1 84.2 l 23.1 -0.9 M 117.6 77.7 l 16.7 3.9 M 554.1 65.1 l 29.1 -11.3 M 468.1 57.9 l 10.0 2.0 M 231.5 77.4 l 33.6 6.6 " fill="none" stroke="#e8bd84" stroke-width="1" stroke-linecap="round"/></g>

</g>
<path d="M 112 26 L 688 26 Q 700 26 699 38 L 678 252 L 122 252 L 101 38 Q 100 26 112 26 Z" fill="none" stroke="#14100b" stroke-width="3.4" stroke-linejoin="round"/>
<rect x="336" y="27" width="128" height="20" rx="4" fill="#c49544"/><path d="M 339 30 H 461 V 34 H 339 Z" fill="#f0d48e" opacity=".85"/><path d="M 337 42 H 463 V 46 H 337 Z" fill="#8a6326"/><rect x="336" y="27" width="128" height="20" rx="4" fill="none" stroke="#3a2a12" stroke-width="2.2"/><circle cx="343" cy="37" r="1.8" fill="#8a6326" stroke="#3a2a12" stroke-width="1"/><circle cx="457" cy="37" r="1.8" fill="#8a6326" stroke="#3a2a12" stroke-width="1"/><text x="400" y="42" text-anchor="middle" font-family="Georgia,serif" font-weight="bold" font-size="11.5" letter-spacing="2.6" fill="#f0d48e" opacity=".7">C.R.O.N.O.S.</text><text x="400" y="41" text-anchor="middle" font-family="Georgia,serif" font-weight="bold" font-size="11.5" letter-spacing="2.6" fill="#2e200c">C.R.O.N.O.S.</text>
<path d="M 117 46 L 683 46 L 664 238 L 136 238 Z" fill="#6e2031"/>
<g clip-path="url(#bc-cLidVel)"><path d="M 642.2 131.5 C 646.8 141.4 634.4 155.4 612.6 164.5 C 590.8 173.5 546.5 181 511.4 185.7 C 476.2 190.4 439.8 190.9 401.8 192.9 C 363.9 194.9 319.7 199.8 283.4 197.7 C 247.1 195.6 206.8 188.4 183.8 180.3 C 160.8 172.2 142.8 159.5 145.4 148.9 C 147.9 138.3 173.9 125.4 199.2 116.9 C 224.5 108.4 263.9 103.1 297 97.7 C 330.2 92.4 362.3 86.9 398.1 84.7 C 433.9 82.6 480.5 81.3 511.7 84.7 C 542.9 88.2 563.5 97.7 585.2 105.5 C 607 113.3 637.7 121.7 642.2 131.5 Z" fill="#a14a5d" opacity=".13"/><path d="M 117 46 L 683 46 L 664 238 L 136 238 Z" fill="url(#bc-felt)" opacity=".45"/><path d="M 110 40 L 690 40 L 688 58 Q 520 62 400 57 Q 260 53 114 60 Z" fill="#24060d" opacity=".55"/><path d="M 668 40 L 690 40 L 670 244 L 650 244 Z" fill="#24060d" opacity=".35"/></g>
<path d="M 117 46 L 683 46 L 664 238 L 136 238 Z" fill="none" stroke="#1c050a" stroke-width="2.8" stroke-linejoin="round"/>
<path d="M 122 51 L 678 51 L 660.4 233 L 139.6 233 Z" fill="none" stroke="#a14a5d" stroke-width="1.3" stroke-linejoin="round" opacity=".55"/>
<clipPath id="bc-pC"><path d="M 142 72 L 300 72 L 294 212 L 152 212 Z"/></clipPath>
<path d="M 142 72 L 300 72 L 294 212 L 152 212 Z" fill="#551725"/>
<g clip-path="url(#bc-pC)">
<g transform="translate(142 0) scale(.653 1) translate(-142 0)"><path d="M 331.1 161.6 C 331.4 165.7 330 170.4 324 174.6 C 318 178.8 306.8 184.8 295 186.8 C 283.1 188.8 265.3 187.6 253 186.7 C 240.7 185.8 229 184.1 221.4 181.3 C 213.8 178.6 207.3 174.2 207.3 170.3 C 207.3 166.3 215.2 162.2 221.4 157.6 C 227.6 153 232.4 145.8 244.6 142.6 C 256.8 139.5 281.6 137.3 294.5 138.5 C 307.5 139.7 316.3 145.8 322.4 149.7 C 328.5 153.5 330.9 157.4 331.1 161.6 Z" fill="#a14a5d" opacity=".13"/></g>
<path d="M 142 72 L 300 72 L 294 212 L 152 212 Z" fill="url(#bc-felt)" opacity=".5"/>
<path d="M 140 70 L 302 70 L 302 82.5 Q 260.5 89.2 221 84.8 Q 176.7 81 152.1 87 L 160 214 L 150 214 Z" fill="#24060d" opacity=".62"/>
</g>
<path d="M 145 69.8 L 297 69.8" stroke="#a14a5d" stroke-width="1.8" stroke-linecap="round" opacity=".85"/>
<path d="M 142 72 L 300 72 L 294 212 L 152 212 Z" fill="none" stroke="#1c050a" stroke-width="2.6" stroke-linejoin="round"/>
<text x="222" y="205.3" font-family="Georgia,'Times New Roman',serif" font-weight="bold" font-size="11.5" letter-spacing="3" text-anchor="middle" fill="#1e050a" opacity=".9">GOLD RESERVE</text>
<text x="222" y="204" font-family="Georgia,'Times New Roman',serif" font-weight="bold" font-size="11.5" letter-spacing="3" text-anchor="middle" fill="#dcb467">GOLD RESERVE</text>
<clipPath id="bc-pV"><path d="M 332 72 L 658 72 L 646 212 L 326 212 Z"/></clipPath>
<path d="M 332 72 L 658 72 L 646 212 L 326 212 Z" fill="#551725"/>
<g clip-path="url(#bc-pV)">
<g transform="translate(658 0) scale(1.347 1) translate(-658 0)"><path d="M 620.9 160.5 C 623.2 165.2 621.7 172.9 612.6 177 C 603.6 181.1 581.3 183 566.7 184.9 C 552.2 186.8 540 188.3 525.4 188.5 C 510.9 188.7 489.4 189.2 479.5 186.3 C 469.5 183.5 465.2 176.5 465.7 171.3 C 466.3 166.2 474 160.3 482.8 155.5 C 491.6 150.7 504.6 145 518.5 142.6 C 532.4 140.1 553 140 566.3 141 C 579.7 142.1 589.7 145.7 598.8 149 C 607.9 152.2 618.6 155.8 620.9 160.5 Z" fill="#a14a5d" opacity=".13"/></g>
<path d="M 332 72 L 658 72 L 646 212 L 326 212 Z" fill="url(#bc-felt)" opacity=".5"/>
<path d="M 330 70 L 660 70 L 660 82.5 Q 576.5 89.2 495 84.8 Q 403.7 81 340.1 87 L 334 214 L 324 214 Z" fill="#24060d" opacity=".62"/>
</g>
<path d="M 335 69.8 L 655 69.8" stroke="#a14a5d" stroke-width="1.8" stroke-linecap="round" opacity=".85"/>
<path d="M 332 72 L 658 72 L 646 212 L 326 212 Z" fill="none" stroke="#1c050a" stroke-width="2.6" stroke-linejoin="round"/>
<text x="488" y="205.3" font-family="Georgia,'Times New Roman',serif" font-weight="bold" font-size="11.5" letter-spacing="3" text-anchor="middle" fill="#1e050a" opacity=".9">EQUIPMENT</text>
<text x="488" y="204" font-family="Georgia,'Times New Roman',serif" font-weight="bold" font-size="11.5" letter-spacing="3" text-anchor="middle" fill="#dcb467">EQUIPMENT</text>
<path d="M 112 26 L 148 26 L 142 58 L 104 56 L 101 38 Q 100 26 112 26 Z" fill="#c49544"/>
<path d="M 104.5 50 L 143 52 L 142 58 L 104 56 Z" fill="#8a6326"/>
<path d="M 108 30 L 144 30 L 143.4 34 L 104 34 Q 104 30 108 30 Z" fill="#f0d48e" opacity=".9"/>
<path d="M 112 26 L 148 26 L 142 58 L 104 56 L 101 38 Q 100 26 112 26 Z" fill="none" stroke="#3a2a12" stroke-width="2.2" stroke-linejoin="round"/>
<circle cx="118" cy="42" r="2.3" fill="#8a6326" stroke="#3a2a12" stroke-width="1.1"/><circle cx="117.3" cy="41.3" r=".7" fill="#f0d48e"/>
<circle cx="133" cy="43" r="2.3" fill="#8a6326" stroke="#3a2a12" stroke-width="1.1"/><circle cx="132.3" cy="42.3" r=".7" fill="#f0d48e"/>
<path d="M 688 26 L 652 26 L 658 58 L 696 56 L 699 38 Q 700 26 688 26 Z" fill="#c49544"/>
<path d="M 695.5 50 L 657 52 L 658 58 L 696 56 Z" fill="#8a6326"/>
<path d="M 692 30 L 656 30 L 656.6 34 L 696 34 Q 696 30 692 30 Z" fill="#f0d48e" opacity=".9"/>
<path d="M 688 26 L 652 26 L 658 58 L 696 56 L 699 38 Q 700 26 688 26 Z" fill="none" stroke="#3a2a12" stroke-width="2.2" stroke-linejoin="round"/>
<circle cx="682" cy="42" r="2.3" fill="#8a6326" stroke="#3a2a12" stroke-width="1.1"/><circle cx="681.3" cy="41.3" r=".7" fill="#f0d48e"/>
<circle cx="667" cy="43" r="2.3" fill="#8a6326" stroke="#3a2a12" stroke-width="1.1"/><circle cx="666.3" cy="42.3" r=".7" fill="#f0d48e"/>
<path d="M 122 252 L 678 252 L 680 266 L 120 266 Z" fill="#2a1606" stroke="#14100b" stroke-width="2.4"/><path d="M 124 255 L 676 255" stroke="#6e4520" stroke-width="1.2"/>
<rect x="291" y="254.5" width="18" height="9" rx="2" fill="#8b959d" stroke="#14100b" stroke-width="1.4"/><path d="M 293 256.8 H 307" stroke="#d7dde2" stroke-width="1.1"/><path d="M 300 254.5 V 263.5" stroke="#14100b" stroke-width="1"/>
<rect x="491" y="254.5" width="18" height="9" rx="2" fill="#8b959d" stroke="#14100b" stroke-width="1.4"/><path d="M 493 256.8 H 507" stroke="#d7dde2" stroke-width="1.1"/><path d="M 500 254.5 V 263.5" stroke="#14100b" stroke-width="1"/>
<path d="M 120 266 L 680 266 L 702 400 Q 704 412 692 412 L 108 412 Q 96 412 98 400 Z" fill="#14100b" stroke="#14100b" stroke-width="5.0" stroke-linejoin="round" transform="translate(1.6 2.2)"/>
<path d="M 120 266 L 680 266 L 702 400 Q 704 412 692 412 L 108 412 Q 96 412 98 400 Z" fill="#93602f"/>
<g clip-path="url(#bc-cBase)">
<path d="M 680 266 L 702 400 Q 704 412 692 412 L 100 412 L 100 402 L 684 402 L 666 276 Z" fill="#663e18"/>
<path d="M 120 266 L 680 266 L 702 400 Q 704 412 692 412 L 108 412 Q 96 412 98 400 Z" fill="url(#bc-grainN)" opacity="0.5"/>
<path d="M 465.6 270 C 466.9 270.9 462.1 272.4 452.5 272.9 C 442.9 273.4 421.4 273 408.1 273.1 C 394.8 273.1 382.4 273.5 372.7 273.2 C 362.9 272.8 356.1 272 349.4 271.2 C 342.8 270.4 328.8 269.1 332.7 268.4 C 336.7 267.6 360.1 267.3 373.2 266.9 C 386.3 266.5 399.4 265.6 411.3 265.7 C 423.2 265.8 435.4 266.8 444.5 267.5 C 453.5 268.2 464.2 269.1 465.6 270 Z" fill="#efc58e" opacity="0.18"/>
<path d="M 116.8 330 C 116.8 338.4 116.3 348.5 115.5 355.5 C 114.7 362.4 113.2 371.4 112 371.7 C 110.8 372 109 364 108.2 357.1 C 107.4 350.1 107.1 338.2 107.2 330 C 107.3 321.8 108.2 313.7 109 308.1 C 109.8 302.5 110.9 296.8 112 296.2 C 113.1 295.7 114.7 299.2 115.5 304.8 C 116.3 310.5 116.7 321.6 116.8 330 Z" fill="#efc58e" opacity="0.18"/>
<path d="M 697.3 340 C 697.5 347.4 697.1 360.8 696.2 365.4 C 695.4 370.1 693.4 368 692 367.9 C 690.6 367.8 688.8 369.6 687.8 364.9 C 686.9 360.3 686.1 347.6 686.2 340 C 686.3 332.4 687.6 323.7 688.5 319.3 C 689.5 314.8 690.9 313 692 313.3 C 693.1 313.6 694.3 316.6 695.2 321 C 696 325.5 697.1 332.6 697.3 340 Z" fill="#efc58e" opacity="0.12"/>
<path d="M 298.4 406 C 298.7 406.8 281.7 407.7 273.7 408.4 C 265.6 409.1 259 410.2 250 410.3 C 241 410.4 225.1 409.8 219.6 409 C 214 408.3 215.2 406.9 216.7 406 C 218.1 405.1 222.8 404.5 228.3 403.8 C 233.9 403.1 242.7 401.7 250 401.7 C 257.3 401.7 263.9 403.1 272 403.8 C 280 404.5 298.1 405.2 298.4 406 Z" fill="#efc58e" opacity="0.12"/>
<path d="M 148.9 268.1 Q 149.6 273.6 151.1 278.9 Q 151.6 272.8 151.1 267.9 Z" fill="#2e1606" opacity=".6"/>
<path d="M 648.9 267.9 Q 648.4 273.4 648.9 278.9 Q 650.6 273 651.1 268.1 Z" fill="#2e1606" opacity=".6"/>
<path d="M 103.7 356.8 Q 108.4 358.5 113.4 359.4 Q 108.5 356.7 104.3 355.2 Z" fill="#2e1606" opacity=".6"/>
<path d="M 695.7 349.2 Q 691 350.9 686.6 353.4 Q 692.1 352.4 696.3 350.8 Z" fill="#2e1606" opacity=".6"/>
<path d="M 212 269 l 8 0 M 560 270 l 9 -1 M 690 316 l 2 8" fill="none" stroke="#efc58e" stroke-width="1.1" stroke-linecap="round" opacity=".32"/>
<path d="M 120 266 L 680 266 L 702 400 Q 704 412 692 412 L 108 412 Q 96 412 98 400 Z" fill="none" stroke="#3a1e08" stroke-width="9" opacity=".6"/>
<path d="M 571.9 378.6 L 566.0 383.2 L 559.9 389.1 L 545.9 388.2 L 532.5 385.4 L 531.9 378.6 L 532.4 371.8 L 546.5 370.0 L 560.3 367.5 L 572.3 371.9 Z" fill="#7c4d22"/><path d="M 376.7 344.6 L 376.2 351.7 L 364.2 357.5 L 348.4 354.5 L 331.9 352.5 L 327.8 344.6 L 331.5 336.5 L 348.1 334.3 L 361.5 335.6 L 378.7 336.7 Z" fill="#7c4d22"/><path d="M 301.1 289.4 l 25.6 -11.3 M 426.2 319.9 l 11.4 -1.1 M 132.1 329.6 l 11.7 -5.0 M 360.5 385.4 l 13.0 -4.2 M 480.2 402.6 l 23.9 -4.4 M 686.0 274.6 l 30.6 -8.2 " fill="none" stroke="#e8bd84" stroke-width="1" stroke-linecap="round"/></g>
<path d="M 120 266 L 680 266 L 702 400 Q 704 412 692 412 L 108 412 Q 96 412 98 400 Z" fill="none" stroke="#14100b" stroke-width="3.4" stroke-linejoin="round"/>
<path d="M 136 280 L 664 280 L 682 398 L 118 398 Z" fill="#6e2031"/>
<g clip-path="url(#bc-cBaseVel)"><path d="M 643 363.9 C 650.6 369.1 654.4 376.8 635.3 380.7 C 616.3 384.7 564.4 386.3 528.4 387.6 C 492.4 388.9 453.9 389.5 419.5 388.4 C 385.1 387.4 351.7 384.3 321.7 381.4 C 291.8 378.5 258.3 375.2 239.8 371 C 221.4 366.9 209.4 360.9 211.1 356.4 C 212.8 351.8 234.6 347.9 250.2 343.6 C 265.7 339.3 275.9 332.9 304.3 330.5 C 332.7 328.1 381.7 328.5 420.5 329.1 C 459.4 329.8 509 331.1 537.2 334.5 C 565.4 337.9 572.1 344.7 589.8 349.6 C 607.4 354.5 635.4 358.7 643 363.9 Z" fill="#a14a5d" opacity=".13"/><path d="M 136 280 L 664 280 L 682 398 L 118 398 Z" fill="url(#bc-felt)" opacity=".45"/><path d="M 130 276 L 670 276 L 671 292 Q 520 296 400 293 Q 260 290 129 295 Z" fill="#24060d" opacity=".55"/></g>
<path d="M 136 280 L 664 280 L 682 398 L 118 398 Z" fill="none" stroke="#1c050a" stroke-width="2.8" stroke-linejoin="round"/>
<path d="M 140 285 L 660 285 L 676.2 393 L 123.8 393 Z" fill="none" stroke="#a14a5d" stroke-width="1.3" stroke-linejoin="round" opacity=".5"/>
<clipPath id="bc-pG"><path d="M 132 300 L 452 300 L 458 384 L 118 384 Z"/></clipPath>
<path d="M 132 300 L 452 300 L 458 384 L 118 384 Z" fill="#551725"/>
<g clip-path="url(#bc-pG)">
<path d="M 282.1 352.8 C 283.9 355.6 289.9 360.1 284 362.3 C 278.2 364.6 258 365.1 246.8 366.5 C 235.6 367.8 227.3 369.9 216.7 370.3 C 206.1 370.8 188.7 370.8 183 369.1 C 177.3 367.3 180.9 362.7 182.3 359.8 C 183.7 356.8 186.3 354.3 191.4 351.6 C 196.6 348.8 203.9 344.8 213.1 343.3 C 222.4 341.9 236.6 342.5 246.6 342.9 C 256.7 343.2 267.5 343.8 273.4 345.5 C 279.3 347.1 280.3 350 282.1 352.8 Z" fill="#a14a5d" opacity=".13"/>
<path d="M 132 300 L 452 300 L 458 384 L 118 384 Z" fill="url(#bc-felt)" opacity=".5"/>
<path d="M 130 298 L 454 298 L 454 310.5 Q 380 317.2 300 312.8 Q 200 309 138.5 315 L 126 386 L 116 386 Z" fill="#24060d" opacity=".62"/>
</g>
<path d="M 135 297.8 L 449 297.8" stroke="#a14a5d" stroke-width="1.8" stroke-linecap="round" opacity=".85"/>
<path d="M 132 300 L 452 300 L 458 384 L 118 384 Z" fill="none" stroke="#1c050a" stroke-width="2.6" stroke-linejoin="round"/>
<text x="288" y="382.3" font-family="Georgia,'Times New Roman',serif" font-weight="bold" font-size="10" letter-spacing="3" text-anchor="middle" fill="#1e050a" opacity=".9">CONTRACTS</text>
<text x="288" y="381" font-family="Georgia,'Times New Roman',serif" font-weight="bold" font-size="10" letter-spacing="3" text-anchor="middle" fill="#dcb467">CONTRACTS</text>
<g transform="translate(222 101.9) scale(.8)" stroke="#a14a5d" stroke-width="2.6" fill="none" opacity=".4"><circle r="24"/><circle r="11"/><path d="M 0 -30 V -25 M 0 30 V 25 M -30 0 H -25 M 30 0 H 25 M -21 -21 l 3.4 3.4 M 21 21 l -3.4 -3.4 M 21 -21 l -3.4 3.4 M -21 21 l 3.4 -3.4"/><path d="M 0 0 L 9 -2.6"/></g><g transform="translate(222 101) scale(.8)" stroke="#24060d" stroke-width="3" fill="none" opacity=".85"><circle r="24"/><circle r="11"/><path d="M 0 -30 V -25 M 0 30 V 25 M -30 0 H -25 M 30 0 H 25 M -21 -21 l 3.4 3.4 M 21 21 l -3.4 -3.4 M 21 -21 l -3.4 3.4 M -21 21 l 3.4 -3.4"/><path d="M 0 0 L 9 -2.6"/></g>
<clipPath id="bc-pE"><path d="M 480 300 L 662 300 L 678 384 L 488 384 Z"/></clipPath>
<path d="M 480 300 L 662 300 L 678 384 L 488 384 Z" fill="#551725"/>
<g clip-path="url(#bc-pE)">
<path d="M 602.5 349.9 C 600.3 352.9 592.8 356 583 359.1 C 573.1 362.1 560.2 366.1 543.1 368.4 C 526 370.8 499.4 372.7 480.1 373.2 C 460.9 373.7 440.9 372.8 427.4 371.3 C 414 369.8 396.4 367 399.4 364.1 C 402.4 361.2 431.4 356.8 445.4 353.8 C 459.3 350.7 466.8 348.4 483.3 345.8 C 499.8 343.2 525.7 338.7 544.4 337.9 C 563.2 337.2 585.9 339.1 595.6 341 C 605.3 343 604.6 346.9 602.5 349.9 Z" fill="#a14a5d" opacity=".13"/>
<path d="M 480 300 L 662 300 L 678 384 L 488 384 Z" fill="url(#bc-felt)" opacity=".5"/>
<path d="M 478 298 L 664 298 L 664 310.5 Q 610 317.2 560 312.8 Q 520 309 490.8 315 L 496 386 L 486 386 Z" fill="#24060d" opacity=".62"/>
</g>
<path d="M 483 297.8 L 659 297.8" stroke="#a14a5d" stroke-width="1.8" stroke-linecap="round" opacity=".85"/>
<path d="M 480 300 L 662 300 L 678 384 L 488 384 Z" fill="none" stroke="#1c050a" stroke-width="2.6" stroke-linejoin="round"/>
<g transform="translate(-10 226) scale(1 .8) translate(0 5)"><clipPath id="bc-sC1"><path d="M 144 76 L 168 108 L 156 116 L 142 90 Z"/></clipPath><path d="M 144 76 L 168 108 L 156 116 L 142 90 Z" fill="#4a2a12"/><g clip-path="url(#bc-sC1)"><path d="M 144 76 L 168 108 L 156 116 L 142 90 Z" fill="url(#bc-grainC)" opacity=".45"/><path d="M 144 76 L 168 108 L 156 116 L 142 90 Z" fill="none" stroke="#1e1006" stroke-width="4" opacity=".55"/></g><path d="M 144 76 L 168 108 L 156 116 L 142 90 Z" fill="none" stroke="#14100b" stroke-width="2.2" stroke-linejoin="round"/></g>
<g transform="translate(68 226) scale(1 .8) translate(0 5)"><clipPath id="bc-sC2"><path d="M 382 76 L 358 108 L 370 116 L 384 90 Z"/></clipPath><path d="M 382 76 L 358 108 L 370 116 L 384 90 Z" fill="#4a2a12"/><g clip-path="url(#bc-sC2)"><path d="M 382 76 L 358 108 L 370 116 L 384 90 Z" fill="url(#bc-grainC)" opacity=".45"/><path d="M 382 76 L 358 108 L 370 116 L 384 90 Z" fill="none" stroke="#1e1006" stroke-width="4" opacity=".55"/></g><path d="M 382 76 L 358 108 L 370 116 L 384 90 Z" fill="none" stroke="#14100b" stroke-width="2.2" stroke-linejoin="round"/></g>
<g id="bc-vpocket"><path d="M 485 352 L 672 352 L 678 384 L 488 384 Z" fill="#6a1d2e"/><path d="M 485 352 L 672 352 L 678 384 L 488 384 Z" fill="url(#bc-felt)" opacity=".45"/><path d="M 486 358 L 672.9 358 L 673.5 362 Q 580 364.5 486.6 361.6 Z" fill="#24060d" opacity=".55"/><path d="M 484.4 351 L 672.6 351 L 673.6 358 L 485.4 358 Z" fill="#7d5632"/><path d="M 486 352.6 L 671 352.6" stroke="#b08352" stroke-width="1.2" stroke-linecap="round"/><path d="M 484.4 351 L 672.6 351 L 673.6 358 L 485.4 358 Z" fill="none" stroke="#14100b" stroke-width="1.6" stroke-linejoin="round"/><path d="M 484.4 351 L 672.6 351" stroke="#14100b" stroke-width="2.4" stroke-linecap="round"/><path d="M 480 300 L 662 300 L 678 384 L 488 384 Z" fill="none" stroke="#1c050a" stroke-width="2.6" stroke-linejoin="round"/><text x="581" y="377.3" font-family="Georgia,'Times New Roman',serif" font-weight="bold" font-size="10" letter-spacing="3" text-anchor="middle" fill="#1e050a" opacity=".9">VOUCHERS</text><text x="581" y="376" font-family="Georgia,'Times New Roman',serif" font-weight="bold" font-size="10" letter-spacing="3" text-anchor="middle" fill="#dcb467">VOUCHERS</text></g>
<path d="M 108 412 Q 96 412 98 400 L 103 368 L 140 372 L 134 412 Z" fill="#c49544"/>
<path d="M 99 402 L 134.6 406 L 134 412 L 108 412 Q 98 412 99 402 Z" fill="#8a6326"/>
<path d="M 103 368 L 140 372 L 139.4 377 L 102.2 373 Z" fill="#f0d48e" opacity=".9"/>
<path d="M 108 412 Q 96 412 98 400 L 103 368 L 140 372 L 134 412 Z" fill="none" stroke="#3a2a12" stroke-width="2.2" stroke-linejoin="round"/>
<circle cx="115" cy="390" r="2.3" fill="#8a6326" stroke="#3a2a12" stroke-width="1.1"/><circle cx="114.3" cy="389.3" r=".7" fill="#f0d48e"/>
<circle cx="128" cy="392" r="2.3" fill="#8a6326" stroke="#3a2a12" stroke-width="1.1"/><circle cx="127.3" cy="391.3" r=".7" fill="#f0d48e"/>
<path d="M 692 412 Q 704 412 702 400 L 697 368 L 660 372 L 666 412 Z" fill="#c49544"/>
<path d="M 701 402 L 665.4 406 L 666 412 L 692 412 Q 702 412 701 402 Z" fill="#8a6326"/>
<path d="M 697 368 L 660 372 L 660.6 377 L 697.8 373 Z" fill="#f0d48e" opacity=".9"/>
<path d="M 692 412 Q 704 412 702 400 L 697 368 L 660 372 L 666 412 Z" fill="none" stroke="#3a2a12" stroke-width="2.2" stroke-linejoin="round"/>
<circle cx="685" cy="390" r="2.3" fill="#8a6326" stroke="#3a2a12" stroke-width="1.1"/><circle cx="684.3" cy="389.3" r=".7" fill="#f0d48e"/>
<circle cx="672" cy="392" r="2.3" fill="#8a6326" stroke="#3a2a12" stroke-width="1.1"/><circle cx="671.3" cy="391.3" r=".7" fill="#f0d48e"/>
<path d="M 108 412 L 692 412 L 690 446 Q 689 456 677 456 L 123 456 Q 111 456 110 446 Z" fill="#14100b" stroke="#14100b" stroke-width="4.6" stroke-linejoin="round" transform="translate(1.6 2.2)"/>
<path d="M 108 412 L 692 412 L 690 446 Q 689 456 677 456 L 123 456 Q 111 456 110 446 Z" fill="#93602f"/>
<g clip-path="url(#bc-cWall)">
<path d="M 108 442 Q 250 446 400 444 Q 560 442 692 440 L 692 460 L 108 460 Z" fill="#663e18"/>
<path d="M 108 412 L 692 412 L 690 446 Q 689 456 677 456 L 123 456 Q 111 456 110 446 Z" fill="url(#bc-grainN)" opacity="0.5"/>
<path d="M 258.5 428 C 257.7 430.8 249.6 433.6 244.2 435.4 C 238.7 437.2 232.5 438.4 226 438.9 C 219.6 439.4 212.5 439.2 205.5 438.2 C 198.5 437.3 187.3 435.7 184 433.1 C 180.7 430.6 182.4 425.7 185.8 423.1 C 189.3 420.5 198 418.8 204.9 417.3 C 211.8 415.9 219.8 414.1 227.3 414.4 C 234.7 414.6 244.3 416.6 249.5 418.9 C 254.7 421.1 259.4 425.2 258.5 428 Z" fill="#efc58e" opacity="0.16"/>
<path d="M 610.1 428 C 609.6 430.5 605 432.6 600.9 435 C 596.9 437.4 592.4 441.5 585.6 442.4 C 578.9 443.3 567.7 441.8 560.6 440.2 C 553.5 438.6 545.9 435.8 543.1 433 C 540.4 430.1 540.6 425.7 543.9 423.1 C 547.2 420.5 556 418.8 562.9 417.3 C 569.8 415.9 578.5 413.9 585.3 414.4 C 592.1 414.9 599.5 417.8 603.7 420.1 C 607.8 422.4 610.6 425.5 610.1 428 Z" fill="#efc58e" opacity="0.16"/>
<path d="M 482.5 427 C 479.5 429.6 460.1 431.4 450.4 433.6 C 440.6 435.8 435.7 439.4 423.8 440.2 C 411.9 441.1 394.1 439.4 379 438.7 C 363.9 437.9 343 437.7 333.2 435.8 C 323.4 433.8 317.6 429.6 320.1 427 C 322.7 424.4 338.3 422 348.6 420.3 C 358.8 418.6 369.7 417.5 381.6 416.8 C 393.6 416.1 405.7 415.6 420.1 415.8 C 434.5 416 457.5 416.2 467.9 418.1 C 478.3 420 485.4 424.4 482.5 427 Z" fill="#efc58e" opacity="0.15"/>
<path d="M 127.1 432 C 127.4 435.1 125.8 440.9 124.2 442.9 C 122.7 444.9 119.8 444.4 118 444 C 116.2 443.6 114.5 442.5 113.2 440.5 C 111.9 438.5 110.4 435.1 110.2 432 C 110.1 428.9 111 424.4 112.3 421.9 C 113.5 419.5 116.3 416.8 118 417.2 C 119.7 417.6 120.9 421.8 122.4 424.3 C 123.9 426.7 126.8 428.9 127.1 432 Z" fill="#efc58e" opacity="0.20"/>
<path d="M 691.2 430 C 691.1 433.1 688.7 436.1 687.3 438.6 C 686 441.2 684.5 445.4 683 445.5 C 681.5 445.6 679.6 441.6 678.5 439 C 677.5 436.4 676.9 433.5 676.7 430 C 676.5 426.5 676.1 420.3 677.1 418.3 C 678.2 416.3 681.2 417.7 683 418 C 684.8 418.3 686.6 418.1 688 420.1 C 689.3 422.1 691.3 426.9 691.2 430 Z" fill="#efc58e" opacity="0.15"/>
<path d="M 339.3 455.2 Q 341.4 442.4 342.5 429.4 Q 338.8 443.3 336.7 454.8 Z" fill="#2e1606" opacity=".6"/>
<path d="M 352.9 455.4 Q 356.1 448.1 358.5 440.4 Q 354 448 351.1 454.6 Z" fill="#2e1606" opacity=".6"/>
<path d="M 463.3 454.8 Q 460.9 442 457.5 429.4 Q 458.7 443.7 460.7 455.2 Z" fill="#2e1606" opacity=".6"/>
<path d="M 448.9 454.6 Q 445.6 447.3 441.5 440.4 Q 444.2 448.8 447.1 455.4 Z" fill="#2e1606" opacity=".6"/>
<path d="M 127 416.1 Q 128.7 431 131.1 445.8 Q 130.4 429.3 129 415.9 Z" fill="#2e1606" opacity=".6"/>
<path d="M 671 415.9 Q 669.5 430.8 668.9 445.8 Q 671.6 429.5 673 416.1 Z" fill="#2e1606" opacity=".6"/>
<path d="M 150 440 l 10 -1 M 640 441 l 8 1 M 290 424 l 6 2" fill="none" stroke="#efc58e" stroke-width="1.1" stroke-linecap="round" opacity=".32"/>
<path d="M 108 412 L 692 412 L 690 446 Q 689 456 677 456 L 123 456 Q 111 456 110 446 Z" fill="none" stroke="#3a1e08" stroke-width="8" opacity=".6"/>
<path d="M 275.5 448.8 L 268.2 452.3 L 262.2 455.0 L 251.8 457.6 L 246.8 452.6 L 240.8 448.8 L 245.2 444.5 L 253.1 441.9 L 262.8 441.7 L 268.9 445.1 Z" fill="#7c4d22"/><path d="M 585.5 420.9 L 584.6 425.2 L 577.1 428.4 L 565.3 430.3 L 558.3 425.5 L 557.4 420.9 L 559.2 416.6 L 565.1 411.1 L 576.2 414.7 L 587.1 415.7 Z" fill="#7c4d22"/><path d="M 381.2 429.4 l 13.3 2.6 M 118.7 434.1 l 31.6 -13.7 M 433.7 438.2 l 11.0 -2.2 M 519.5 432.3 l 27.4 -10.3 M 251.9 420.0 l 22.2 5.3 " fill="none" stroke="#e8bd84" stroke-width="1" stroke-linecap="round"/></g>
<path d="M 110 413.6 L 690 413.6" stroke="#3a1e08" stroke-width="3.2" stroke-linecap="round"/><path d="M 112 413 L 688 413" stroke="#d6a062" stroke-width=".9" stroke-linecap="round" opacity=".7"/>
<path d="M 108 412 L 692 412 L 690 446 Q 689 456 677 456 L 123 456 Q 111 456 110 446 Z" fill="none" stroke="#14100b" stroke-width="3" stroke-linejoin="round"/>
<rect x="196" y="418" width="50" height="24" rx="4" fill="#c49544"/><path d="M 199 421 H 243 V 425 H 199 Z" fill="#f0d48e" opacity=".85"/><path d="M 197 437 H 245 V 441 H 197 Z" fill="#8a6326"/><rect x="196" y="418" width="50" height="24" rx="4" fill="none" stroke="#3a2a12" stroke-width="2.2"/><rect x="208" y="425" width="26" height="7" rx="2" fill="#5a4020" stroke="#3a2a12" stroke-width="1.4"/><path d="M 210 430.4 H 232" stroke="#f0d48e" stroke-width=".9" opacity=".6"/>
<rect x="554" y="418" width="50" height="24" rx="4" fill="#c49544"/><path d="M 557 421 H 601 V 425 H 557 Z" fill="#f0d48e" opacity=".85"/><path d="M 555 437 H 603 V 441 H 555 Z" fill="#8a6326"/><rect x="554" y="418" width="50" height="24" rx="4" fill="none" stroke="#3a2a12" stroke-width="2.2"/><rect x="566" y="425" width="26" height="7" rx="2" fill="#5a4020" stroke="#3a2a12" stroke-width="1.4"/><path d="M 568 430.4 H 590" stroke="#f0d48e" stroke-width=".9" opacity=".6"/>
<path d="M 344 456 Q 342 488 400 488 Q 458 488 456 456 L 438 456 Q 439 474 400 474 Q 361 474 362 456 Z" fill="#14100b" stroke="#14100b" stroke-width="4.6" stroke-linejoin="round" transform="translate(1.6 2.2)"/>
<path d="M 344 456 Q 342 488 400 488 Q 458 488 456 456 L 438 456 Q 439 474 400 474 Q 361 474 362 456 Z" fill="#4a2a12"/>
<g clip-path="url(#bc-cHandle)"><path d="M 340 470 Q 350 488 400 488 Q 452 488 460 468 L 460 492 L 340 492 Z" fill="#2e1a0a"/><path d="M 344 456 Q 342 488 400 488 Q 458 488 456 456 L 438 456 Q 439 474 400 474 Q 361 474 362 456 Z" fill="url(#bc-grainC)" opacity=".45"/><path d="M 425.3 477 C 425.4 477.9 421.8 479.2 417.6 479.8 C 413.4 480.4 405.3 480.9 400 480.8 C 394.7 480.7 389.9 479.9 386 479.2 C 382.2 478.6 377.1 477.8 376.9 477 C 376.6 476.2 380.8 475.1 384.6 474.6 C 388.5 474 394.6 473.8 400 473.8 C 405.4 473.7 413 473.7 417.2 474.3 C 421.5 474.8 425.2 476.1 425.3 477 Z" fill="#b8875a" opacity=".18"/><path d="M 344 456 Q 342 488 400 488 Q 458 488 456 456 L 438 456 Q 439 474 400 474 Q 361 474 362 456 Z" fill="none" stroke="#1e1006" stroke-width="5" opacity=".55"/></g>
<path d="M 344 456 Q 342 488 400 488 Q 458 488 456 456 L 438 456 Q 439 474 400 474 Q 361 474 362 456 Z" fill="none" stroke="#14100b" stroke-width="3" stroke-linejoin="round"/>
</svg>
