<svg xmlns="http://www.w3.org/2000/svg" viewBox="0 0 150 80" width="150" height="80"><defs><pattern id="dt" width="3.6" height="3.6" patternUnits="userSpaceOnUse" patternTransform="rotate(45)"><circle cx="1.8" cy="1.8" r=".8" fill="#4a4236"/></pattern>
<g id="ph"><rect width="38" height="40" fill="#bdb49c"/><rect width="38" height="40" fill="url(#dt)"/><path d="M0 10H38M0 20H38M0 30H38" stroke="#7d7464" stroke-width=".9"/><path d="M7 40Q8 28 15 26Q10 22 11 16Q12 8 19 8Q26 8 27 16Q28 22 23 26Q30 28 31 40Z" fill="#241c14"/><path d="M14 13Q16 10 20 10" stroke="#9a907e" stroke-width="1.5" fill="none" stroke-linecap="round"/><path d="M28 30L33 25M30 34L36 28M32 38L38 32" stroke="#140a04" stroke-width="1"/><rect width="38" height="40" fill="none" stroke="#140a04" stroke-width="2"/></g></defs>
<path d="M9 15H145L144 76H10Z" fill="rgba(20,10,4,.45)"/>
<path d="M4 10H140L139.5 62Q133 63 130 71H5Z" fill="#fbf7ec" stroke="#140a04" stroke-width="2.8" stroke-linejoin="round"/>
<path d="M139.5 62Q133 63 130 71L136 66Z" fill="#cfc4a6" stroke="#140a04" stroke-width="2" stroke-linejoin="round"/>
<use href="#ph" x="10" y="18"/><use href="#ph" x="52" y="18" transform="translate(0 0)"/><use href="#ph" x="94" y="18"/>
<path d="M12 64H44M54 64H86M96 64H118" stroke="#8a7f6a" stroke-width="1.2"/>
<path d="M74 4V24Q74 30 79 30Q84 30 84 24V3" fill="none" stroke="rgba(20,10,4,.4)" stroke-width="5" transform="translate(3 3)"/>
<path d="M70 26V6Q70 1 75.5 1Q81 1 81 6V27Q81 33 75.5 33Q71 33 71 28V12" fill="none" stroke="#140a04" stroke-width="5" stroke-linecap="round"/>
<path d="M70 26V6Q70 1 75.5 1Q81 1 81 6V27Q81 33 75.5 33Q71 33 71 28V12" fill="none" stroke="#a9aeb4" stroke-width="2.2" stroke-linecap="round"/>
<path d="M79 6Q78.5 3 75.5 2.6" fill="none" stroke="#f2f4f6" stroke-width="1.3" stroke-linecap="round"/>
</svg>
